<svg width="49" height="35" viewBox="0 0 49 35" fill="none" xmlns="http://www.w3.org/2000/svg">
<rect y="0.514648" width="49" height="34" rx="17" fill="#1E1E1E"/>
<path d="M16.4697 16.9843C16.1768 17.2772 16.1768 17.7521 16.4697 18.045L21.2426 22.8179C21.5355 23.1108 22.0104 23.1108 22.3033 22.8179C22.5962 22.5251 22.5962 22.0502 22.3033 21.7573L18.0607 17.5146L22.3033 13.272C22.5962 12.9791 22.5962 12.5042 22.3033 12.2113C22.0104 11.9185 21.5355 11.9185 21.2426 12.2113L16.4697 16.9843ZM32 16.7646L17 16.7646L17 18.2646L32 18.2646L32 16.7646Z" fill="url(#paint0_linear_0_1)"/>
<defs>
<linearGradient id="paint0_linear_0_1" x1="32" y1="17.2278" x2="18.3238" y2="12.7284" gradientUnits="userSpaceOnUse">
<stop stop-color="#CBCBCB"/>
<stop offset="1" stop-color="#F8F8F8"/>
</linearGradient>
</defs>
</svg>
